<svg xmlns="http://www.w3.org/2000/svg" enable-background="new 0 0 67 67" viewBox="0 0 67 67"><path fill="#1FA6F8" d="M64.2,9.1v44c0,1.1-0.9,2.1-2.1,2.1H24.6c-1.1,0-2.1-0.9-2.1-2.1v-44H64.2z"/><path fill="#BCD6EF" d="M64.2,8.6V5c0-1.1-0.9-2.1-2.1-2.1H24.6c-1.1,0-2.1,0.9-2.1,2.1v3.6H64.2z"/><rect width="8.3" height="1" x="24.5" y="10.8" fill="#FFF"/><rect width="8.3" height="1" x="24.5" y="25" fill="#FFF"/><path fill="#FFF" d="M57.9,35.4l-0.1-1h0.1V35.4z M55.8,35.4h-3v-1h3V35.4z M50.8,35.4h-3v-1h3V35.4z M45.8,35.4h-3v-1h3V35.4
				z M40.8,35.4h-3v-1h3V35.4z M35.8,35.4h-3v-1h3V35.4z"/><rect width="8.3" height="1" x="24.5" y="39.1" fill="#BCD6EF"/><path fill="#FFF" d="M57.9,49.6h-1.1v-1h1.1V49.6z M53.8,49.6h-3v-1h3V49.6z M47.8,49.6h-3v-1h3V49.6z M41.8,49.6h-3v-1h3
				V49.6z M35.8,49.6h-3v-1h3V49.6z"/><circle cx="24.6" cy="4.3" r="1" fill="#0FCAAD"/><circle cx="28.3" cy="4.3" r="1" fill="#1FA6F8"/><circle cx="31.9" cy="4.3" r="1" fill="#FF9889"/><polygon fill="#FFF" points="30.7 41.6 27.3 41.6 27.3 49.9 16.2 49.9 16.2 41.6 12.8 41.6 21.7 32.7"/><polygon fill="#0FCAAD" points="14.1 49.8 25.2 49.8 25.2 42.6 28.6 42.6 19.6 33.6 10.7 42.6 14.1 42.6"/><path fill="#FFF" d="M40.2,57.7c0,4.3-3.5,7.8-7.8,7.8c-3.1,0-5.8-1.8-7.1-4.5h-7.2c-1.2,2.6-3.9,4.5-7.1,4.5
			c-4.3,0-7.8-3.5-7.8-7.8c0-4.3,3.5-7.8,7.8-7.8h21.7v0C36.9,50.1,40.2,53.5,40.2,57.7z"/><path fill="#1FA6F8" d="M28.3 57.1c.7 0 1.2.5 1.2 1.2 0 .7-.5 1.2-1.2 1.2s-1.2-.5-1.2-1.2C27.1 57.6 27.7 57.1 28.3 57.1zM35.4 57.1c.7 0 1.2.5 1.2 1.2 0 .7-.5 1.2-1.2 1.2s-1.2-.5-1.2-1.2C34.2 57.6 34.7 57.1 35.4 57.1z"/><path fill="#0FCAAD" d="M30.6 61.8c0-.7.5-1.2 1.2-1.2.7 0 1.2.5 1.2 1.2S32.5 63 31.8 63C31.2 63 30.6 62.4 30.6 61.8zM30.6 54.7c0-.7.5-1.2 1.2-1.2.7 0 1.2.5 1.2 1.2 0 .7-.5 1.2-1.2 1.2C31.2 55.9 30.6 55.4 30.6 54.7z"/><polygon fill="#FF9889" points="13.8 57.3 13.8 59.8 11.5 59.8 11.5 62.1 9 62.1 9 59.8 6.7 59.8 6.7 57.3 9 57.3 9 55 11.5 55 11.5 57.3"/><path fill="#222F59" d="M60,1H22.4c-1.4,0-2.6,1.2-2.6,2.6c0,29,0,30.1,0,30.3l-8.3,8.3h4.1v7.3l-4.6,0c-4.6,0-8.3,3.7-8.3,8.3
				c0,4.6,3.7,8.3,8.3,8.3c3.1,0,6-1.7,7.4-4.5H25c1.4,2.7,4.3,4.5,7.4,4.5c4.6,0,8.3-3.7,8.3-8.3c0-1.4-0.4-2.8-1-4H60
				c1.4,0,2.6-1.2,2.6-2.6c0-14,0-32,0-47.6C62.5,2.1,61.4,1,60,1z M14,41.1l7.8-7.8l7.8,7.8h-2.7v8.3H16.7v-8.3H14z M32.4,65
				c-2.8,0-5.4-1.6-6.6-4.2l-0.1-0.3h-7.8l-0.1,0.3c-1.2,2.5-3.8,4.2-6.6,4.2c-4,0-7.3-3.3-7.3-7.3c0-4,3.3-7.3,7.3-7.3
				c15.8,0-6.4,0,21.4,0l0.2,0c3.9,0.2,7,3.4,7,7.3C39.7,61.7,36.4,65,32.4,65z M61.5,51.1c0,0.9-0.7,1.6-1.6,1.6H39.1
				c-1.4-1.8-3.4-3-5.8-3.3l-5.5,0v-7.3h4.1L21.7,31.9l-0.9,0.9V7.7h40.7V51.1z M20.9,6.7V3.6c0-0.9,0.7-1.6,1.6-1.6H60
				c0.9,0,1.6,0.7,1.6,1.6v3.1H20.9z"/><rect width="10.8" height="1" x="32.8" y="15.5" fill="#222F59"/><rect width="10.8" height="1" x="32.8" y="20.3" fill="#222F59"/><rect width="2" height="1" x="40.8" y="29.7" fill="#222F59"/><rect width="2" height="1" x="48.8" y="29.7" fill="#222F59"/><rect width="2" height="1" x="32.8" y="29.7" fill="#222F59"/><rect width="2" height="1" x="44.8" y="29.7" fill="#222F59"/><rect width="2" height="1" x="36.8" y="29.7" fill="#222F59"/><rect width="2" height="1" x="52.8" y="29.7" fill="#222F59"/><rect width="1.1" height="1" x="56.8" y="29.7" fill="#222F59"/><rect width="2" height="1" x="48.8" y="43.9" fill="#222F59"/><rect width="2" height="1" x="44.8" y="43.9" fill="#222F59"/><rect width="2" height="1" x="32.8" y="43.9" fill="#222F59"/><rect width="2" height="1" x="36.8" y="43.9" fill="#222F59"/><rect width="2" height="1" x="52.8" y="43.9" fill="#222F59"/><rect width="2" height="1" x="40.8" y="43.9" fill="#222F59"/><rect width="1.1" height="1" x="56.8" y="43.9" fill="#222F59"/><rect width="18.8" height="1" x="40.4" y="3.8" fill="#222F59"/><path fill="#222F59" d="M28.9 56.1c-.9 0-1.6.7-1.6 1.6 0 .9.7 1.6 1.6 1.6s1.6-.7 1.6-1.6C30.5 56.8 29.7 56.1 28.9 56.1zM28.9 58.5c-.4 0-.8-.4-.8-.8 0-.4.4-.8.8-.8s.8.3.8.8C29.7 58.1 29.3 58.5 28.9 58.5zM35.9 56.1c-.9 0-1.6.7-1.6 1.6 0 .9.7 1.6 1.6 1.6s1.6-.7 1.6-1.6C37.5 56.8 36.8 56.1 35.9 56.1zM35.9 58.5c-.4 0-.8-.4-.8-.8 0-.4.4-.8.8-.8.4 0 .8.3.8.8C36.7 58.1 36.4 58.5 35.9 58.5zM32.4 59.6c-.9 0-1.6.7-1.6 1.6s.7 1.6 1.6 1.6c.9 0 1.6-.7 1.6-1.6S33.3 59.6 32.4 59.6zM32.4 62c-.4 0-.8-.4-.8-.8 0-.4.3-.8.8-.8.4 0 .8.4.8.8C33.2 61.6 32.8 62 32.4 62zM32.4 52.6c-.9 0-1.6.7-1.6 1.6s.7 1.6 1.6 1.6c.9 0 1.6-.7 1.6-1.6S33.3 52.6 32.4 52.6zM32.4 55c-.4 0-.8-.4-.8-.8s.3-.8.8-.8c.4 0 .8.4.8.8S32.8 55 32.4 55zM12.8 53.7H9.4V56H7.1v3.3h2.3v2.3h3.3v-2.3h2.3V56h-2.3V53.7zM14.3 56.8v1.7H12v2.3h-1.7v-2.3H7.9v-1.7h2.3v-2.3H12v2.3H14.3z"/><rect width="4.1" height="1" x="19.7" y="54.2" fill="#222F59"/><rect width="4.1" height="1" x="19.7" y="56.6" fill="#222F59"/><polygon fill="#FFF" points="48.8 21.2 45.8 18.2 48.8 15.2 49.5 15.9 47.2 18.2 49.5 20.5"/><polygon fill="#FFF" points="55.6 21.2 54.9 20.5 57.2 18.2 54.9 15.9 55.6 15.2 58.6 18.2"/><rect width="1" height="8.7" x="51.5" y="13.8" fill="#FFF" transform="rotate(21.604 52.026 18.183)"/></svg>