<svg xmlns="http://www.w3.org/2000/svg" enable-background="new 0 0 66 66" viewBox="0 0 66 66"><path d="M40.5 54.8H25.5c-1.7 0-3 1.4-3 3 0 1.5 1.1 2.8 2.5 3-.1.3-.2.7-.2 1.1 0 1.7 1.4 3 3 3h10.4c1.7 0 3-1.4 3-3 0-.4-.1-.8-.2-1.1 1.4-.2 2.6-1.5 2.6-3C43.6 56.2 42.2 54.8 40.5 54.8zM12.8 29.4c-.2 0-.5 0-.7-.1.8 5.1 3.4 9.7 7.4 13 3.2 2.7 5 6 5.5 10.5.2 0 .3 0 .5 0H32V34.7l-1.7 1.6c-.4.4-1 .4-1.4 0L25.7 33c-.4-.4-.4-1 0-1.4.4-.4 1-.4 1.4 0l2.6 2.6 2.6-2.6c0 0 0 0 0 0 .4-.4 1-.4 1.4 0 0 0 0 0 0 0l2.6 2.6 2.6-2.6c.4-.4 1-.4 1.4 0 .4.4.4 1 0 1.4L37 36.3c-.4.4-1 .4-1.4 0L34 34.7v18.2h6.6c.2 0 .3 0 .5 0 .6-4.5 2.3-7.9 5.6-10.6 3.9-3.3 6.5-7.9 7.3-12.9-.2.1-.5.1-.7.1H12.8zM57.1 19.1c-.9-2-2.7-3.4-4.9-3.9.6-3.7-2.3-7.3-6.5-7.4 0-7.3-9.2-9.1-12.7-3.7-3.8-5.9-13.2-2.8-12.7 3.7-4.1.1-7.1 3.6-6.5 7.4-2.2.4-4 1.9-4.9 3.9-1.4 3.2.1 6.8 3.4 8.3.1 0 .3.1.4.1h40.5c.1 0 .3 0 .4-.1C56.9 26 58.4 22.3 57.1 19.1zM18.3 19.7c-1 0-1.8.7-1.9 1.7 0 .5-.5.9-1 .9 0 0 0 0 0 0-.5 0-.9-.5-.9-1 .1-2 1.8-3.6 3.9-3.5.5 0 1 .5.9 1C19.3 19.3 18.8 19.7 18.3 19.7zM24.9 17.1c-1 0-1.8.7-1.9 1.7 0 .5-.5.9-1 .9 0 0 0 0 0 0-.5 0-.9-.5-.9-1 .1-2 1.8-3.6 3.9-3.5.5 0 1 .5.9 1C25.9 16.7 25.4 17.1 24.9 17.1zM27.8 10.4c-1 0-1.8.7-1.9 1.7 0 .5-.5.9-1 .9 0 0 0 0 0 0-.5 0-.9-.5-.9-1 .1-2 1.8-3.6 3.9-3.5.5 0 1 .5.9 1C28.7 10 28.3 10.4 27.8 10.4zM36.2 17.4l-4.1 4.5c-.4.4-1 .4-1.4.1-.4-.4-.4-1-.1-1.4l2.6-2.8H31c-.4 0-.7-.2-.9-.5-.2-.3-.1-.7.1-1l3.5-4.7c.3-.4.9-.5 1.4-.2.4.3.5.9.2 1.4L33 15.8h2.5c.4 0 .7.2.9.6C36.5 16.7 36.4 17.1 36.2 17.4zM40.2 11.2C40.2 11.2 40.2 11.2 40.2 11.2c-.6 0-1-.4-1-.9 0-1-.9-1.7-1.9-1.7-.5 0-1-.4-1-.9 0-.5.4-1 .9-1 2-.1 3.8 1.5 3.9 3.5C41.2 10.7 40.7 11.2 40.2 11.2zM46.5 14.1c-.9 1.8-3 2.6-4.9 1.8-.5-.2-.7-.8-.5-1.3.2-.5.8-.7 1.3-.5.9.4 1.9 0 2.3-.8.2-.5.8-.7 1.3-.5C46.5 13 46.7 13.6 46.5 14.1zM51.1 20.6c-.5 0-.9.1-1.3.4-.4.3-.6.7-.6 1.2 0 .5-.5.9-1 .9 0 0-.1 0-.1 0-.5 0-.9-.5-.9-1.1.2-2 2-3.5 4-3.3.5 0 .9.5.9 1.1C52.1 20.2 51.6 20.6 51.1 20.6z"/></svg>