<svg xmlns="http://www.w3.org/2000/svg" width="32" height="27" enable-background="new 0 0 32 27" overflow="visible" viewBox="0 0 32 27"><switch><g><polygon fill="#EF7954" points="14 19 21 26 23 24.979 21 19"/><polygon fill="#EF7954" points="25 11 22 14 25 14"/><polygon fill="#EF7954" points="26 12 23 15 26 15"/><polygon fill="#EF7954" points="27 13 24 16 27 16"/><path fill="#EF7954" d="M20,0v0.5c0.828,0,1.5,0.672,1.5,1.5S20.828,3.5,20,3.5H5
							c-2.761,0-5,2.238-5,5s2.239,5,5,5s5-2.238,5-5H9.5C9.5,10.985,7.485,13,5,13s-4.5-2.015-4.5-4.5S2.515,4,5,4h15
							c1.104,0,2-0.896,2-2S21.104,0,20,0z"/><path fill="#FE8455" d="M0,5c0,4.418,3.582,8,8,8h13V5H0z"/><path fill="#F79B77" d="M21,5v8c3.313,0,6,2.687,6,6s-2.687,6-6,6v2c6.075,0,11-4.925,11-11
							S27.075,5,21,5z"/><polygon fill="#FE8455" points="21 25 16 22 10 27 21 27"/><path fill="#FE8455" d="M25.463,15C26.416,16.063,27,17.461,27,19
							c0,1.094-0.298,2.117-0.81,3h4.022C31.34,20.273,32,18.215,32,16c0-0.337-0.021-0.67-0.051-1H25.463z"/><circle cx="8" cy="8" r="1" fill="#4C4C4C"/><polygon fill="#FE8455" points="11 13 8 16 20 13"/><polygon fill="#FE8455" points="8 13 7 14 11 13"/><polygon fill="#EF7954" points="20 13 11 13 12.8 14.8"/><polygon fill="#EF7954" points="11 13 8 13 8.6 13.6"/></g></switch></svg>