<svg xmlns="http://www.w3.org/2000/svg" xmlns:xlink="http://www.w3.org/1999/xlink" width="500" zoomAndPan="magnify" viewBox="0 0 375 374.999991" height="500" preserveAspectRatio="xMidYMid meet" version="1.0"><defs><g/><clipPath id="id1"><path d="M 116.585938 89.472656 L 258.335938 89.472656 L 258.335938 224.472656 L 116.585938 224.472656 Z M 116.585938 89.472656 " clip-rule="nonzero"/></clipPath></defs><g clip-path="url(#id1)"><path fill="#efefef" d="M 255.890625 134.597656 C 248.222656 106.355469 225.023438 89.488281 193.828125 89.488281 L 116.585938 89.488281 L 118.109375 92.984375 C 124.65625 107.992188 139.46875 117.691406 155.84375 117.699219 L 176.875 117.699219 L 177.046875 117.691406 C 177.847656 117.636719 180.800781 117.457031 185.230469 117.457031 C 189.492188 117.457031 193.835938 117.625 198.121094 117.953125 L 198.542969 117.984375 C 214.953125 119.277344 237.433594 123.566406 251.328125 136.648438 L 251.507812 136.816406 C 251.578125 136.882812 251.652344 136.949219 251.722656 137.023438 L 258.332031 143.609375 Z M 258.007812 167.152344 L 257.988281 167.421875 C 253.816406 202.613281 228.96875 224.472656 193.140625 224.472656 L 143.863281 224.472656 L 143.863281 157.847656 L 146.355469 157.847656 C 160.78125 157.847656 172.519531 169.585938 172.519531 184.011719 L 172.519531 195.808594 L 194.34375 195.808594 C 205.09375 195.808594 214.144531 192.28125 220.523438 185.601562 C 227.015625 178.800781 230.445312 168.976562 230.445312 157.183594 L 230.445312 156.78125 C 230.445312 147.652344 228.4375 139.777344 224.476562 133.378906 L 220.78125 127.40625 L 227.417969 129.710938 C 235.648438 132.566406 242.328125 136.371094 247.261719 141.023438 C 254.476562 147.820312 258.09375 156.609375 258.007812 167.152344 " fill-opacity="1" fill-rule="nonzero"/></g><g fill="#ffffff" fill-opacity="1"><g transform="translate(154.143613, 283.019869)"><g><path d="M 6.125 -3.671875 L 7.125 -3.671875 L 7.125 -0.84375 C 6.769531 -0.539062 6.351562 -0.3125 5.875 -0.15625 C 5.394531 0 4.894531 0.078125 4.375 0.078125 C 3.632812 0.078125 2.96875 -0.0820312 2.375 -0.40625 C 1.789062 -0.726562 1.332031 -1.171875 1 -1.734375 C 0.664062 -2.296875 0.5 -2.929688 0.5 -3.640625 C 0.5 -4.347656 0.664062 -4.984375 1 -5.546875 C 1.332031 -6.117188 1.796875 -6.5625 2.390625 -6.875 C 2.984375 -7.195312 3.648438 -7.359375 4.390625 -7.359375 C 4.972656 -7.359375 5.5 -7.257812 5.96875 -7.0625 C 6.445312 -6.875 6.851562 -6.597656 7.1875 -6.234375 L 6.546875 -5.59375 C 5.960938 -6.15625 5.257812 -6.4375 4.4375 -6.4375 C 3.882812 -6.4375 3.382812 -6.316406 2.9375 -6.078125 C 2.5 -5.835938 2.15625 -5.503906 1.90625 -5.078125 C 1.65625 -4.648438 1.53125 -4.171875 1.53125 -3.640625 C 1.53125 -3.109375 1.65625 -2.628906 1.90625 -2.203125 C 2.15625 -1.773438 2.5 -1.441406 2.9375 -1.203125 C 3.382812 -0.960938 3.878906 -0.84375 4.421875 -0.84375 C 5.078125 -0.84375 5.644531 -1 6.125 -1.3125 Z M 6.125 -3.671875 "/></g></g></g><g fill="#ffffff" fill-opacity="1"><g transform="translate(168.740747, 283.019869)"><g><path d="M 5.71875 -1.8125 L 1.859375 -1.8125 L 1.0625 0 L -0.015625 0 L 3.28125 -7.265625 L 4.3125 -7.265625 L 7.609375 0 L 6.53125 0 Z M 5.359375 -2.65625 L 3.796875 -6.21875 L 2.21875 -2.65625 Z M 5.359375 -2.65625 "/></g></g></g><g fill="#ffffff" fill-opacity="1"><g transform="translate(182.922138, 283.019869)"><g><path d="M 4.375 0.078125 C 3.632812 0.078125 2.96875 -0.0820312 2.375 -0.40625 C 1.789062 -0.726562 1.332031 -1.171875 1 -1.734375 C 0.664062 -2.304688 0.5 -2.941406 0.5 -3.640625 C 0.5 -4.335938 0.664062 -4.96875 1 -5.53125 C 1.332031 -6.101562 1.789062 -6.550781 2.375 -6.875 C 2.96875 -7.195312 3.632812 -7.359375 4.375 -7.359375 C 5.101562 -7.359375 5.757812 -7.195312 6.34375 -6.875 C 6.9375 -6.550781 7.398438 -6.109375 7.734375 -5.546875 C 8.066406 -4.984375 8.234375 -4.347656 8.234375 -3.640625 C 8.234375 -2.929688 8.066406 -2.296875 7.734375 -1.734375 C 7.398438 -1.171875 6.9375 -0.726562 6.34375 -0.40625 C 5.757812 -0.0820312 5.101562 0.078125 4.375 0.078125 Z M 4.375 -0.84375 C 4.90625 -0.84375 5.382812 -0.960938 5.8125 -1.203125 C 6.238281 -1.441406 6.570312 -1.773438 6.8125 -2.203125 C 7.0625 -2.628906 7.1875 -3.109375 7.1875 -3.640625 C 7.1875 -4.160156 7.0625 -4.632812 6.8125 -5.0625 C 6.570312 -5.488281 6.238281 -5.820312 5.8125 -6.0625 C 5.382812 -6.3125 4.90625 -6.4375 4.375 -6.4375 C 3.84375 -6.4375 3.359375 -6.3125 2.921875 -6.0625 C 2.492188 -5.820312 2.15625 -5.488281 1.90625 -5.0625 C 1.65625 -4.632812 1.53125 -4.160156 1.53125 -3.640625 C 1.53125 -3.109375 1.65625 -2.628906 1.90625 -2.203125 C 2.15625 -1.773438 2.492188 -1.441406 2.921875 -1.203125 C 3.359375 -0.960938 3.84375 -0.84375 4.375 -0.84375 Z M 4.375 -0.84375 "/></g></g></g><g fill="#ffffff" fill-opacity="1"><g transform="translate(198.22603, 283.019869)"><g><path d="M 7.34375 -7.265625 L 7.34375 0 L 6.5 0 L 2.125 -5.421875 L 2.125 0 L 1.09375 0 L 1.09375 -7.265625 L 1.9375 -7.265625 L 6.3125 -1.84375 L 6.3125 -7.265625 Z M 7.34375 -7.265625 "/></g></g></g><g fill="#ffffff" fill-opacity="1"><g transform="translate(213.238908, 283.019869)"><g><path d="M 5.71875 -1.8125 L 1.859375 -1.8125 L 1.0625 0 L -0.015625 0 L 3.28125 -7.265625 L 4.3125 -7.265625 L 7.609375 0 L 6.53125 0 Z M 5.359375 -2.65625 L 3.796875 -6.21875 L 2.21875 -2.65625 Z M 5.359375 -2.65625 "/></g></g></g><g fill="#ffffff" fill-opacity="1"><g transform="translate(93.369354, 266.094875)"><g><path d="M 1.984375 0 L 1.984375 -23.5 L 10.265625 -23.5 C 14.960938 -23.5 18.503906 -22.507812 20.890625 -20.53125 C 23.285156 -18.5625 24.484375 -15.644531 24.484375 -11.78125 C 24.484375 -10.082031 24.175781 -8.515625 23.5625 -7.078125 C 22.945312 -5.648438 22.078125 -4.40625 20.953125 -3.34375 C 19.828125 -2.28125 18.492188 -1.457031 16.953125 -0.875 C 15.421875 -0.289062 13.753906 0 11.953125 0 Z M 8.609375 -5.828125 L 11.484375 -5.828125 C 13.578125 -5.828125 15.160156 -6.320312 16.234375 -7.3125 C 17.304688 -8.300781 17.84375 -9.734375 17.84375 -11.609375 C 17.84375 -13.710938 17.28125 -15.25 16.15625 -16.21875 C 15.03125 -17.1875 13.273438 -17.671875 10.890625 -17.671875 L 8.609375 -17.671875 Z M 8.609375 -5.828125 "/></g></g></g><g fill="#ffffff" fill-opacity="1"><g transform="translate(124.70327, 266.094875)"><g><path d="M 13.109375 0.328125 C 10.566406 0.347656 8.378906 -0.101562 6.546875 -1.03125 C 4.722656 -1.957031 3.320312 -3.289062 2.34375 -5.03125 C 1.375 -6.769531 0.890625 -8.863281 0.890625 -11.3125 C 0.890625 -13.832031 1.421875 -16.03125 2.484375 -17.90625 C 3.546875 -19.78125 5.023438 -21.234375 6.921875 -22.265625 C 8.816406 -23.304688 11.03125 -23.828125 13.5625 -23.828125 C 15.882812 -23.828125 17.910156 -23.34375 19.640625 -22.375 C 21.367188 -21.40625 22.710938 -20.050781 23.671875 -18.3125 C 24.640625 -16.582031 25.125 -14.550781 25.125 -12.21875 C 25.125 -9.738281 24.617188 -7.5625 23.609375 -5.6875 C 22.609375 -3.8125 21.203125 -2.34375 19.390625 -1.28125 C 17.578125 -0.226562 15.484375 0.304688 13.109375 0.328125 Z M 12.9375 -5.453125 C 14.632812 -5.453125 15.976562 -6.050781 16.96875 -7.25 C 17.96875 -8.457031 18.46875 -10.066406 18.46875 -12.078125 C 18.46875 -13.890625 18 -15.332031 17.0625 -16.40625 C 16.125 -17.488281 14.867188 -18.03125 13.296875 -18.03125 C 12.148438 -18.03125 11.144531 -17.75 10.28125 -17.1875 C 9.425781 -16.625 8.757812 -15.851562 8.28125 -14.875 C 7.8125 -13.894531 7.578125 -12.765625 7.578125 -11.484375 C 7.578125 -9.585938 8.050781 -8.109375 9 -7.046875 C 9.945312 -5.984375 11.257812 -5.453125 12.9375 -5.453125 Z M 12.9375 -5.453125 "/></g></g></g><g fill="#ffffff" fill-opacity="1"><g transform="translate(156.665828, 266.094875)"><g><path d="M 2.046875 0 L 2.75 -23.5 L 8.140625 -23.5 L 16.015625 -8.171875 L 23.765625 -23.5 L 29.15625 -23.5 L 29.65625 0 L 23.265625 0 L 23.0625 -9.828125 L 18.03125 0 L 13.40625 0 L 8.40625 -9.65625 L 8.109375 0 Z M 2.046875 0 "/></g></g></g><g fill="#ffffff" fill-opacity="1"><g transform="translate(194.352288, 266.094875)"><g><path d="M 1.984375 0 L 1.984375 -23.5 L 8.609375 -23.5 L 8.609375 0 Z M 1.984375 0 "/></g></g></g><g fill="#ffffff" fill-opacity="1"><g transform="translate(210.896698, 266.094875)"><g><path d="M 16.984375 -23.5 L 23.328125 -23.5 L 23.328125 0 L 17.4375 0 L 8.34375 -12.640625 L 8.34375 0 L 1.984375 0 L 1.984375 -23.5 L 7.875 -23.5 L 16.984375 -10.890625 Z M 16.984375 -23.5 "/></g></g></g><g fill="#ffffff" fill-opacity="1"><g transform="translate(242.16445, 266.094875)"><g><path d="M 1.984375 0 L 1.984375 -23.5 L 8.609375 -23.5 L 8.609375 0 Z M 1.984375 0 "/></g></g></g><g fill="#ffffff" fill-opacity="1"><g transform="translate(258.70886, 266.094875)"><g><path d="M 23.5625 -4.671875 C 22.550781 -3.054688 21.160156 -1.8125 19.390625 -0.9375 C 17.628906 -0.0703125 15.664062 0.359375 13.5 0.359375 C 10.851562 0.359375 8.585938 -0.101562 6.703125 -1.03125 C 4.816406 -1.957031 3.375 -3.289062 2.375 -5.03125 C 1.382812 -6.769531 0.890625 -8.84375 0.890625 -11.25 C 0.890625 -13.789062 1.4375 -16 2.53125 -17.875 C 3.625 -19.75 5.148438 -21.207031 7.109375 -22.25 C 9.078125 -23.300781 11.363281 -23.828125 13.96875 -23.828125 C 16.257812 -23.828125 18.1875 -23.421875 19.75 -22.609375 C 21.320312 -21.804688 22.601562 -20.566406 23.59375 -18.890625 L 18.59375 -15.359375 C 18.175781 -16.171875 17.523438 -16.8125 16.640625 -17.28125 C 15.765625 -17.757812 14.796875 -18 13.734375 -18 C 11.796875 -18.019531 10.289062 -17.414062 9.21875 -16.1875 C 8.144531 -14.96875 7.609375 -13.378906 7.609375 -11.421875 C 7.609375 -9.546875 8.097656 -8.082031 9.078125 -7.03125 C 10.066406 -5.976562 11.550781 -5.453125 13.53125 -5.453125 C 15.832031 -5.453125 17.554688 -6.445312 18.703125 -8.4375 Z M 23.5625 -4.671875 "/></g></g></g></svg>